HIERARCHY
ROOT Hips
{
  OFFSET 100.954 94.3043 27.911
  CHANNELS 6 Xposition Yposition Zposition Zrotation Xrotation Yrotation
  JOINT ToSpine
  {
    OFFSET -2.69724 7.43032 -0.144315
    CHANNELS 3 Zrotation Xrotation Yrotation
    JOINT Spine
    {
      OFFSET -0.0310711 10.7595 1.96963
      CHANNELS 3 Zrotation Xrotation Yrotation
      JOINT Spine1
      {
        OFFSET 13.1342 3.43533 0.764692
        CHANNELS 3 Zrotation Xrotation Yrotation
        JOINT Neck
        {
          OFFSET 29.8703 7.82586 -0.130764
          CHANNELS 3 Zrotation Xrotation Yrotation
          JOINT Head
          {
            OFFSET 9.52751 0.295786 -0.907742
            CHANNELS 3 Zrotation Xrotation Yrotation
            End Site
            {
              OFFSET 16.4037 0.713936 2.7358
            }
          }
        }
        JOINT LeftShoulder
        {
          OFFSET 27.5574 4.95586 2.47156
          CHANNELS 3 Zrotation Xrotation Yrotation
          JOINT LeftArm
          {
            OFFSET 1.20734 -0.998971 20.1238
            CHANNELS 3 Zrotation Xrotation Yrotation
            JOINT LeftForeArm
            {
              OFFSET 26.8049 -0.0536703 -0.155908
              CHANNELS 3 Zrotation Xrotation Yrotation
              JOINT LeftHand
              {
                OFFSET 26.6817 0 0.320147
                CHANNELS 3 Zrotation Xrotation Yrotation
                End Site
                {
                  OFFSET 18.6119 0 0.382219
                }
              }
            }
          }
        }
        JOINT RightShoulder
        {
          OFFSET 27.5927 4.71444 -2.65209
          CHANNELS 3 Zrotation Xrotation Yrotation
          JOINT RightArm
          {
            OFFSET 2.83739 -1.17114 -18.7564
            CHANNELS 3 Zrotation Xrotation Yrotation
            JOINT RightForeArm
            {
              OFFSET 28.839 -0.0548439 1.22491
              CHANNELS 3 Zrotation Xrotation Yrotation
              JOINT RightHand
              {
                OFFSET 26.5114 0 -0.101894
                CHANNELS 3 Zrotation Xrotation Yrotation
                End Site
                {
                  OFFSET 18.2168 0 0
                }
              }
            }
          }
        }
      }
    }
  }
  JOINT LeftUpLeg
  {
    OFFSET -4.76168 -1.9167 -10.2353
    CHANNELS 3 Zrotation Xrotation Yrotation
    JOINT LeftLeg
    {
      OFFSET 2.55951 -42.0585 -8.02213
      CHANNELS 3 Zrotation Xrotation Yrotation
      JOINT LeftFoot
      {
        OFFSET 3.16357 -42.5282 -3.95426
        CHANNELS 3 Zrotation Xrotation Yrotation
        JOINT LeftToeBase
        {
          OFFSET 0.346054 -6.02161 12.8035
          CHANNELS 3 Zrotation Xrotation Yrotation
          End Site
          {
            OFFSET 0.134235 -1.35082 5.13018
          }
        }
      }
    }
  }
  JOINT RightUpLeg
  {
    OFFSET -4.94151 -1.41743 10.6446
    CHANNELS 3 Zrotation Xrotation Yrotation
    JOINT RightLeg
    {
      OFFSET -2.56294 -42.0364 -7.94377
      CHANNELS 3 Zrotation Xrotation Yrotation
      JOINT RightFoot
      {
        OFFSET -3.0952 -42.555 -4.02241
        CHANNELS 3 Zrotation Xrotation Yrotation
        JOINT RightToeBase
        {
          OFFSET -0.0828122 -6.13587 12.8035
          CHANNELS 3 Zrotation Xrotation Yrotation
          End Site
          {
            OFFSET -0.131328 -1.35082 5.13018
          }
        }
      }
    }
  }
}
MOTION
Frames:	10
Frame Time:	0.0333333
109.817 87.8293 43.1299 35.7297 -44.0979 -38.6039 -70.1915 0 88.8779 140.775 73.261 -57.6709 -1.59671 30.5851 -2.51828 -123.41 18.3119 -173.263 -163.958 54.8664 -156.452 0.63606 -13.4917 -22.1744 -88.364 45.8688 -124.413 13.8453 -4.55076 -107.012 0.983955 -0.000495535 0.907374 -1.31264 12.8274 23.1518 -103.69 -58.0877 113.018 22.9193 8.06858 108.048 2.10501 0.04052 1.52665 -1.11041 1.05492 77.8925 -6.4537 57.3999 -15.257 3.04593 -6.93817 -0.844022 0.747247 0.173995 -4.32522 -56.4406 -2.84263 77.1052 2.2083 42.3086 2.34246 -6.8741 -11.5996 1.24765 2.53004 -26.9479 -10.7856 
109.541 87.9881 42.8461 33.4349 -47.5648 -41.3477 -70.1915 0 88.8779 133.964 74.4251 -51.3521 -0.721454 29.902 -2.61212 -120.406 17.9089 -174.109 -160.797 54.4546 -158.125 0.653619 -13.5823 -21.2375 -92.9507 45.3609 -122.55 14.5033 -4.74093 -106.902 0.852759 -0.00104023 0.63006 -1.26778 12.008 23.6113 -100.155 -58.8185 114.824 22.3131 9.79549 112.183 1.55259 0.0256349 1.22094 -2.49914 3.56372 77.3566 -6.36263 57.7936 -13.4526 2.2868 -7.68039 -0.836495 0.737593 0.0345017 -3.96935 -55.6646 -3.76582 77.979 2.06468 43.5449 0.498629 -5.14785 -11.3696 1.19079 2.78943 -25.1598 -5.87227 
109.477 88.5034 42.5392 30.2274 -51.6534 -45.0035 -70.1915 0 88.8779 128.132 74.9546 -44.9812 -0.438385 28.9865 -2.52693 -117.971 18.4754 -172.214 -161.147 54.1808 -156.421 0.657397 -13.417 -21.7627 -98.2389 44.9377 -117.858 14.917 -4.98098 -107.24 0.991572 0.00065446 0.534328 -1.26829 12.0119 23.6219 -92.8741 -58.1345 120.24 20.7888 10.1855 114.625 1.37549 0.0239629 1.26744 -4.93207 6.63623 77.0995 -5.98327 57.3701 -11.5292 2.56773 -8.28437 -0.888336 0.802675 0.280141 -4.84475 -56.0755 -3.708 79.6314 2.63221 42.1478 5.86223 -4.16816 -9.01753 1.06138 1.805 -28.9371 -18.6018 
109.132 88.7838 41.9468 26.3847 -55.9889 -50.3654 -70.1915 0 88.8779 124.79 74.8663 -41.4203 -0.203923 28.8632 -3.8929 -115.931 17.9013 -173.314 -158.878 53.7151 -158.669 0.758854 -12.9784 -19.8332 -102.618 45.7675 -113.734 16.9321 -6.03829 -108.253 0.788251 0.000340858 0.276347 -1.27538 11.317 24.4824 -86.8126 -55.9472 126.474 19.3559 10.3788 116.786 0.831793 0.0119673 0.928476 -7.54427 9.90428 78.3597 -5.94937 57.3035 -11.388 2.13894 -7.38944 -0.809676 1.17816 -1.996 -1.56831 -56.2827 -5.39682 78.8641 2.46168 42.1022 4.51746 -5.81365 -9.19297 1.15071 1.79279 -29.9351 -18.3047 
108.672 89.073 41.1731 20.715 -59.7379 -57.2323 -70.1915 0 88.8779 122.313 74.185 -38.3577 -1.45127 27.7533 -2.94469 -115.883 19.8362 -167.404 -162.195 53.5693 -153.65 0.954707 -10.8952 -22.555 -106.28 42.2656 -110.253 14.1863 -5.5766 -110.176 0.699788 0.000463734 0.485544 -1.12447 13.3301 21.1209 -78.1323 -56.8517 133.235 23.3032 12.6632 116.63 1.50932 0.0305093 1.52029 -10.0831 12.7246 78.8427 -5.49792 56.6962 -9.28191 0.0755048 -8.1924 -0.74062 0.475049 0.0254376 -2.57163 -56.1844 -6.28067 77.9431 2.45429 41.3231 5.00752 -4.49962 -8.84048 1.07147 1.41186 -30.7734 -21.1965 
108.035 89.4527 40.3408 13.5103 -62.5341 -65.9385 -70.1915 0 88.8779 115.317 75.5056 -29.6512 1.56972 28.5538 -6.39348 -115.25 18.291 -172.421 -156.253 53.5131 -161.546 0.8505 -12.2321 -19.0168 -108.416 45.4578 -107.136 16.3305 -6.60014 -110.585 0.685769 0.000771059 0.0749214 -1.12894 11.532 22.8513 -75.7186 -54.1866 136.581 20.155 11.7258 118.608 0.886413 0.0201961 1.52004 -12.5894 15.6812 80.6125 -5.18485 55.4481 -9.27081 -0.423927 -6.64674 -0.58308 0.933791 -2.10834 0.138051 -55.7831 -8.41734 74.7533 1.44194 40.9826 -2.69172 -3.40295 -9.49692 1.04551 3.37191 -26.3688 0.49627 
107.229 90.0252 39.5769 6.00317 -64.7604 -74.8467 -70.1915 0 88.8779 115.046 75.2147 -29.6568 1.02784 28.0788 -5.42218 -117.383 18.4033 -171.179 -158.35 53.3965 -161.631 0.985045 -10.878 -18.0607 -109.348 46.9842 -104.653 17.4124 -7.65732 -112.182 0.747037 0.00154648 -0.0350529 -0.811534 9.76694 21.594 -68.1428 -52.7605 142.898 15.3373 9.66662 121.062 0.992228 0.0359552 2.53614 -15.9335 18.549 82.872 -4.53235 52.972 -8.50608 -0.454727 -5.18917 -0.459508 1.42745 -2.6665 -1.27079 -55.7705 -8.56639 74.8543 1.8158 40.0322 0.552954 -2.12376 -9.39891 0.979239 2.67957 -26.2523 -8.49021 
106.068 90.6376 38.5135 -2.81173 -66.3668 -85.436 -70.1915 0 88.8779 112.093 75.8333 -26.9276 2.19117 28.3455 -5.29901 -117.09 19.1142 -170.728 -158.835 53.8978 -161.443 0.921896 -11.553 -18.4605 -112.539 46.4607 -100.555 18.6778 -8.68238 -113.232 0.580977 0.000896057 -0.207047 -0.593436 9.267 19.6487 -63.8404 -52.9748 146.953 18.6706 11.5293 120.245 1.04237 0.0367788 2.50443 -19.77 21.0847 85.7075 -3.81568 49.7878 -7.32526 -0.889058 -3.10827 -0.242859 1.77791 -3.24545 -1.83571 -54.991 -8.45397 77.1016 1.51044 39.8995 -1.73152 -2.20655 -9.95561 1.0164 2.74773 -24.2041 -5.2725 
104.659 91.4349 37.4413 -11.1364 -66.9203 -95.3019 -70.1915 0 88.8779 109.834 75.522 -24.6764 2.03664 28.0693 -5.66265 -116.041 19.5303 -169.718 -158.051 53.808 -161.273 0.94384 -11.3476 -18.1284 -115.074 45.1695 -96.0507 19.6816 -9.64013 -114.259 0.440241 0.000401656 -0.373317 -0.620846 9.54489 19.6744 -61.0702 -51.9837 149.267 18.3465 11.1716 119.959 0.947721 0.0336889 2.45145 -23.5412 22.7381 87.788 -3.00139 45.7289 -5.30165 -1.57052 -0.215917 0.0926823 1.82969 -2.61878 -3.84024 -54.2153 -7.40346 81.0505 1.49634 39.1818 -1.4884 -1.68959 -10.4455 1.0256 2.56362 -22.2024 -5.75712 
102.993 92.2305 36.3475 -17.3476 -66.7547 -102.643 -70.1915 0 88.8779 104.523 74.8072 -18.5884 2.69664 27.3101 -7.1749 -114.901 20.003 -167.745 -158.633 53.4719 -159.336 0.971308 -11.0318 -18.123 -117.912 43.6217 -91.6911 19.738 -10.2811 -115.611 0.318707 2.53125e-005 -0.43703 -0.70858 10.5725 19.6505 -58.6828 -52.0209 151.127 19.3093 11.5112 119.356 1.27102 0.050345 2.98619 -26.7637 23.3308 88.3762 -2.1627 41.2492 -2.15466 -2.24709 2.6752 0.459841 1.1253 -0.631457 -4.56763 -54.1 -6.45511 83.4393 1.46835 37.5553 -0.545297 -2.4133 -9.88672 1.02134 2.62426 -21.9843 -3.48203 
